<svg xmlns="http://www.w3.org/2000/svg" xmlns:xlink="http://www.w3.org/1999/xlink" width="1080" zoomAndPan="magnify" viewBox="0 0 810 809.999993" height="1080" preserveAspectRatio="xMidYMid meet" version="1.0"><defs><clipPath id="8c725f4baa"><path d="M 8 112 L 808 112 L 808 698.382812 L 8 698.382812 Z M 8 112 " clip-rule="nonzero"/></clipPath></defs><g clip-path="url(#8c725f4baa)"><path fill="#ffffff" d="M 609.171875 560.574219 C 574.921875 567.375 544.015625 573.804688 513.058594 579.59375 C 457.941406 589.898438 402.503906 597.921875 346.375 599.355469 C 330.023438 599.78125 313.453125 595.371094 297.3125 596.804688 C 261.679688 599.886719 227.058594 592.664062 192.386719 587.988281 C 164.507812 584.214844 136.578125 576.726562 110.132812 566.949219 C 55.652344 546.816406 24.585938 505.910156 13.488281 449.011719 C 0.425781 382.234375 11.046875 319.492188 44.023438 260.3125 C 74.765625 205.0625 117.246094 159.746094 164.878906 118.945312 C 167.957031 116.34375 171.675781 114.429688 175.285156 112.570312 C 176.242188 112.039062 177.941406 112.890625 179.269531 113.101562 C 193.710938 140.886719 189.996094 169.148438 170.71875 193.054688 C 142.046875 228.597656 113.371094 264.242188 86.449219 301.113281 C 67.226562 327.410156 52.730469 356.734375 42.535156 388.023438 C 36.800781 405.503906 39.347656 420.113281 50.5 434.667969 C 66.164062 454.960938 85.917969 469.625 108.699219 480.570312 C 140.292969 495.761719 174.011719 503.253906 208.582031 507.609375 C 265.34375 514.675781 322.003906 511.699219 378.660156 506.175781 C 464.261719 497.835938 548.582031 482.003906 632.058594 461.65625 C 637.261719 460.382812 642.199219 458.148438 651.652344 454.75 C 641.085938 451.402344 634.820312 449.171875 628.5 447.367188 C 596.535156 438.175781 564.40625 429.460938 532.601562 419.898438 C 503.394531 411.132812 500.953125 406.992188 503.554688 377.132812 C 506.847656 339.097656 510.828125 336.226562 547.789062 344.195312 C 598.605469 355.195312 649.261719 366.667969 700.292969 376.65625 C 728.808594 382.234375 757.851562 385.210938 786.632812 389.460938 C 793.269531 390.414062 799.804688 391.902344 807.609375 393.390625 C 807.34375 411.929688 808.988281 429.039062 806.335938 445.453125 C 802.140625 471.324219 793.378906 494.433594 768.3125 510.054688 C 740.808594 527.210938 716.0625 548.726562 689.992188 568.226562 C 659.777344 590.804688 634.394531 618.214844 611.507812 647.859375 C 604.921875 656.414062 600.992188 667.089844 596.054688 676.867188 C 592.816406 683.292969 590.003906 689.882812 586.125 698.382812 C 574.976562 686.746094 574.070312 675.539062 574.710938 663.742188 C 576.195312 634.101562 584.160156 606.421875 598.765625 580.65625 C 601.84375 574.8125 604.765625 568.914062 609.171875 560.574219 Z M 467.925781 576.9375 C 474.402344 577.414062 481.09375 579.167969 487.304688 578.105469 C 516.882812 573.007812 546.355469 567.164062 575.929688 561.320312 C 586.230469 558.554688 596.535156 555.792969 606.835938 553.03125 C 606.355469 551.703125 605.878906 550.375 605.402344 549.101562 C 595.472656 553.351562 585.542969 557.652344 575.613281 561.902344 C 569.824219 561.425781 563.769531 559.671875 558.195312 560.628906 C 527.929688 565.835938 497.820312 571.730469 467.605469 577.523438 C 455.339844 579.273438 443.074219 581.027344 430.808594 582.78125 C 431.230469 584.480469 431.65625 586.234375 432.082031 587.933594 C 444.027344 584.269531 455.976562 580.601562 467.925781 576.9375 Z M 368.464844 593.085938 C 368.574219 592.078125 368.679688 591.015625 368.730469 590.007812 C 365.707031 590.113281 362.730469 590.273438 359.707031 590.378906 C 359.707031 591.121094 359.707031 591.8125 359.707031 592.554688 C 362.574219 592.714844 365.546875 592.875 368.464844 593.085938 Z M 368.464844 593.085938 " fill-opacity="1" fill-rule="nonzero"/></g></svg>