<svg xmlns="http://www.w3.org/2000/svg" xmlns:xlink="http://www.w3.org/1999/xlink" width="50" zoomAndPan="magnify" viewBox="0 0 37.5 37.499999" height="50" preserveAspectRatio="xMidYMid meet" version="1.0"><defs><clipPath id="ec778a4d05"><path d="M 2.144531 0 L 35.144531 0 L 35.144531 23 L 2.144531 23 Z M 2.144531 0 " clip-rule="nonzero"/></clipPath><clipPath id="99ef9caddf"><path d="M 2.144531 7 L 35.144531 7 L 35.144531 31 L 2.144531 31 Z M 2.144531 7 " clip-rule="nonzero"/></clipPath><clipPath id="ea25d4c939"><path d="M 2.144531 14 L 35.144531 14 L 35.144531 37.007812 L 2.144531 37.007812 Z M 2.144531 14 " clip-rule="nonzero"/></clipPath></defs><g clip-path="url(#ec778a4d05)"><path fill="#ffffff" d="M 35.105469 0.0273438 L 2.195312 0 L 18.617188 22.707031 Z M 35.105469 0.0273438 " fill-opacity="1" fill-rule="nonzero"/></g><g clip-path="url(#99ef9caddf)"><path fill="#ffffff" d="M 34.621094 7.660156 L 18.617188 29.679688 L 2.691406 7.644531 L 34.621094 7.660156 M 35.144531 7.660156 C 35.144531 7.582031 35.132812 7.503906 35.09375 7.425781 C 35 7.257812 34.820312 7.140625 34.621094 7.140625 L 2.691406 7.128906 C 2.496094 7.128906 2.3125 7.230469 2.222656 7.414062 C 2.183594 7.492188 2.171875 7.570312 2.171875 7.644531 C 2.171875 7.75 2.210938 7.855469 2.273438 7.945312 L 18.199219 29.976562 C 18.304688 30.105469 18.460938 30.195312 18.617188 30.195312 C 18.789062 30.195312 18.945312 30.121094 19.035156 29.976562 L 35.039062 7.96875 C 35.105469 7.878906 35.144531 7.777344 35.144531 7.660156 Z M 35.144531 7.660156 " fill-opacity="1" fill-rule="nonzero"/></g><g clip-path="url(#ea25d4c939)"><path fill="#ffffff" d="M 34.597656 14.96875 L 18.59375 36.976562 L 2.667969 14.941406 L 34.597656 14.96875 M 35.117188 14.96875 C 35.117188 14.890625 35.105469 14.8125 35.066406 14.734375 C 34.976562 14.566406 34.792969 14.449219 34.597656 14.449219 L 2.667969 14.425781 C 2.46875 14.425781 2.289062 14.527344 2.195312 14.710938 C 2.15625 14.789062 2.144531 14.867188 2.144531 14.941406 C 2.144531 15.046875 2.183594 15.148438 2.25 15.242188 L 18.175781 37.273438 C 18.28125 37.402344 18.4375 37.492188 18.59375 37.492188 C 18.761719 37.492188 18.917969 37.414062 19.007812 37.273438 L 35.015625 15.28125 C 35.078125 15.1875 35.117188 15.074219 35.117188 14.96875 Z M 35.117188 14.96875 " fill-opacity="1" fill-rule="nonzero"/></g></svg>